<svg width="205" height="99" viewBox="0 0 205 99" fill="none" xmlns="http://www.w3.org/2000/svg">
<path d="M165.905 81.6006H122.653V82.8957H165.905V81.6006Z" fill="url(#paint0_linear_854_3922)"/>
<path d="M168.578 82.2575C168.578 83.0646 167.922 83.7216 167.115 83.7216C166.308 83.7216 165.651 83.0646 165.651 82.2575C165.651 81.4505 166.308 80.7935 167.115 80.7935C167.922 80.7935 168.578 81.4505 168.578 82.2575ZM167.8 82.2575C167.8 81.8821 167.49 81.5725 167.115 81.5725C166.739 81.5725 166.43 81.8821 166.43 82.2575C166.43 82.6329 166.739 82.9426 167.115 82.9426C167.49 82.9426 167.8 82.6329 167.8 82.2575Z" fill="url(#paint1_linear_854_3922)"/>
<path d="M161.964 77.6496H123.563V78.9447H161.964V77.6496Z" fill="url(#paint2_linear_854_3922)"/>
<path d="M164.629 78.2972C164.629 79.1042 163.972 79.7612 163.165 79.7612C162.358 79.7612 161.701 79.1042 161.701 78.2972C161.701 77.4901 162.358 76.8331 163.165 76.8331C163.972 76.8331 164.629 77.4901 164.629 78.2972ZM163.85 78.2972C163.85 77.9218 163.54 77.6121 163.165 77.6121C162.79 77.6121 162.48 77.9218 162.48 78.2972C162.48 78.6725 162.79 78.9822 163.165 78.9822C163.54 78.9729 163.85 78.6725 163.85 78.2972Z" fill="url(#paint3_linear_854_3922)"/>
<path d="M202.326 47.4307H126.406V48.7258H202.326V47.4307Z" fill="url(#paint4_linear_854_3922)"/>
<path d="M205 48.0782C205 48.8853 204.343 49.5422 203.536 49.5422C202.729 49.5422 202.073 48.8853 202.073 48.0782C202.073 47.2711 202.729 46.6142 203.536 46.6142C204.343 46.6236 205 47.2711 205 48.0782ZM204.221 48.0782C204.221 47.7028 203.912 47.3931 203.536 47.3931C203.161 47.3931 202.851 47.7028 202.851 48.0782C202.851 48.4536 203.161 48.7633 203.536 48.7633C203.912 48.7633 204.221 48.4536 204.221 48.0782Z" fill="url(#paint5_linear_854_3922)"/>
<path d="M194.736 50.9781H127.297V52.2732H194.736V50.9781Z" fill="url(#paint6_linear_854_3922)"/>
<path d="M197.401 51.6256C197.401 52.4327 196.744 53.0897 195.937 53.0897C195.13 53.0897 194.473 52.4327 194.473 51.6256C194.473 50.8186 195.13 50.1616 195.937 50.1616C196.744 50.171 197.401 50.8279 197.401 51.6256ZM196.622 51.6256C196.622 51.2503 196.312 50.9406 195.937 50.9406C195.562 50.9406 195.252 51.2503 195.252 51.6256C195.252 52.001 195.562 52.3107 195.937 52.3107C196.312 52.3107 196.622 52.001 196.622 51.6256Z" fill="url(#paint7_linear_854_3922)"/>
<path d="M157.995 73.6893H125.843V74.9844H157.995V73.6893Z" fill="url(#paint8_linear_854_3922)"/>
<path d="M160.66 74.3368C160.66 75.1439 160.003 75.8009 159.196 75.8009C158.389 75.8009 157.733 75.1439 157.733 74.3368C157.733 73.5297 158.389 72.8728 159.196 72.8728C160.003 72.8822 160.66 73.5297 160.66 74.3368ZM159.881 74.3368C159.881 73.9614 159.572 73.6517 159.196 73.6517C158.821 73.6517 158.511 73.9614 158.511 74.3368C158.511 74.7122 158.821 75.0219 159.196 75.0219C159.572 75.0219 159.881 74.7122 159.881 74.3368Z" fill="url(#paint9_linear_854_3922)"/>
<path d="M154.036 69.7288H121.884V71.0239H154.036V69.7288Z" fill="url(#paint10_linear_854_3922)"/>
<path d="M156.701 70.3858C156.701 71.1929 156.044 71.8498 155.237 71.8498C154.43 71.8498 153.773 71.1929 153.773 70.3858C153.773 69.5787 154.43 68.9218 155.237 68.9218C156.044 68.9218 156.701 69.5787 156.701 70.3858ZM155.922 70.3858C155.922 70.0104 155.612 69.7007 155.237 69.7007C154.862 69.7007 154.552 70.0104 154.552 70.3858C154.552 70.7612 154.862 71.0709 155.237 71.0709C155.622 71.0615 155.922 70.7612 155.922 70.3858Z" fill="url(#paint11_linear_854_3922)"/>
<path d="M169.338 63.7226L160.125 54.5068L159.215 55.4265L168.428 64.6423L169.338 63.7226Z" fill="url(#paint12_linear_854_3922)"/>
<path d="M171.159 64.9989C171.159 65.806 170.502 66.463 169.695 66.463C168.888 66.463 168.231 65.806 168.231 64.9989C168.231 64.1918 168.888 63.5349 169.695 63.5349C170.511 63.5349 171.159 64.1918 171.159 64.9989ZM170.38 64.9989C170.38 64.6235 170.07 64.3138 169.695 64.3138C169.32 64.3138 169.01 64.6235 169.01 64.9989C169.01 65.3743 169.32 65.684 169.695 65.684C170.08 65.684 170.38 65.3743 170.38 64.9989Z" fill="url(#paint13_linear_854_3922)"/>
<path d="M160.097 54.5537H127.044V55.8488H160.097V54.5537Z" fill="url(#paint14_linear_854_3922)"/>
<path d="M179.95 77.1335H167.931V78.4286H179.95V77.1335Z" fill="url(#paint15_linear_854_3922)"/>
<path d="M182.614 77.781C182.614 78.5881 181.958 79.2451 181.151 79.2451C180.344 79.2451 179.687 78.5881 179.687 77.781C179.687 76.9739 180.344 76.317 181.151 76.317C181.958 76.317 182.614 76.9739 182.614 77.781ZM181.836 77.781C181.836 77.4056 181.526 77.096 181.151 77.096C180.775 77.096 180.466 77.4056 180.466 77.781C180.466 78.1564 180.775 78.4661 181.151 78.4661C181.535 78.4567 181.836 78.1564 181.836 77.781Z" fill="url(#paint16_linear_854_3922)"/>
<path d="M168.841 77.5089L157.405 66.0594L156.485 66.9792L167.922 78.4286L168.841 77.5089Z" fill="url(#paint17_linear_854_3922)"/>
<path d="M157.414 66.0594H125.261V67.3545H157.414V66.0594Z" fill="url(#paint18_linear_854_3922)"/>
<path d="M186.348 73.1356H168.71V74.4307H186.348V73.1356Z" fill="url(#paint19_linear_854_3922)"/>
<path d="M189.013 73.7925C189.013 74.5996 188.356 75.2565 187.549 75.2565C186.742 75.2565 186.086 74.5996 186.086 73.7925C186.086 72.9854 186.742 72.3285 187.549 72.3285C188.356 72.3285 189.013 72.9854 189.013 73.7925ZM188.234 73.7925C188.234 73.4171 187.925 73.1074 187.549 73.1074C187.174 73.1074 186.864 73.4171 186.864 73.7925C186.864 74.1679 187.174 74.4776 187.549 74.4776C187.934 74.4682 188.234 74.1679 188.234 73.7925Z" fill="url(#paint20_linear_854_3922)"/>
<path d="M169.62 73.5203L158.183 62.0709L157.264 62.9906L168.701 74.4401L169.62 73.5203Z" fill="url(#paint21_linear_854_3922)"/>
<path d="M158.183 62.0709H126.031V63.366H158.183V62.0709Z" fill="url(#paint22_linear_854_3922)"/>
<path d="M181.789 69.1658H169.489V70.4609H181.789V69.1658Z" fill="url(#paint23_linear_854_3922)"/>
<path d="M184.453 69.8133C184.453 70.6204 183.796 71.2774 182.989 71.2774C182.183 71.2774 181.526 70.6204 181.526 69.8133C181.526 69.0062 182.183 68.3493 182.989 68.3493C183.796 68.3587 184.453 69.0062 184.453 69.8133ZM183.674 69.8133C183.674 69.4379 183.365 69.1282 182.989 69.1282C182.614 69.1282 182.305 69.4379 182.305 69.8133C182.305 70.1887 182.614 70.4984 182.989 70.4984C183.374 70.4984 183.674 70.1887 183.674 69.8133Z" fill="url(#paint24_linear_854_3922)"/>
<path d="M170.399 69.5506L158.962 58.1011L158.042 59.0208L169.479 70.4609L170.399 69.5506Z" fill="url(#paint25_linear_854_3922)"/>
<path d="M158.962 58.1011H126.809V59.3962H158.962V58.1011Z" fill="url(#paint26_linear_854_3922)"/>
<path d="M165.914 13.2513H133.761V14.5464H165.914V13.2513Z" fill="url(#paint27_linear_854_3922)"/>
<path d="M167.124 15.3629C166.317 15.3629 165.661 14.7059 165.661 13.8988C165.661 13.0917 166.317 12.4348 167.124 12.4348C167.931 12.4348 168.588 13.0917 168.588 13.8988C168.579 14.7059 167.922 15.3629 167.124 15.3629ZM167.124 13.2231C166.749 13.2231 166.439 13.5328 166.439 13.9082C166.439 14.2836 166.749 14.5933 167.124 14.5933C167.5 14.5933 167.809 14.2836 167.809 13.9082C167.8 13.5328 167.5 13.2231 167.124 13.2231Z" fill="url(#paint28_linear_854_3922)"/>
<path d="M161.955 17.2117H129.802V18.5068H161.955V17.2117Z" fill="url(#paint29_linear_854_3922)"/>
<path d="M163.165 19.3233C162.358 19.3233 161.701 18.6663 161.701 17.8592C161.701 17.0521 162.358 16.3952 163.165 16.3952C163.972 16.3952 164.629 17.0521 164.629 17.8592C164.629 18.6663 163.972 19.3233 163.165 19.3233ZM163.165 17.1835C162.79 17.1835 162.48 17.4932 162.48 17.8686C162.48 18.244 162.79 18.5537 163.165 18.5537C163.54 18.5537 163.85 18.244 163.85 17.8686C163.85 17.4838 163.54 17.1835 163.165 17.1835Z" fill="url(#paint30_linear_854_3922)"/>
<path d="M194.736 43.8832H127.297V45.1783H194.736V43.8832Z" fill="url(#paint31_linear_854_3922)"/>
<path d="M195.937 45.9854C195.13 45.9854 194.473 45.3284 194.473 44.5213C194.473 43.7142 195.13 43.0573 195.937 43.0573C196.744 43.0573 197.401 43.7142 197.401 44.5213C197.401 45.3378 196.744 45.9854 195.937 45.9854ZM195.937 43.8456C195.562 43.8456 195.252 44.1553 195.252 44.5307C195.252 44.9061 195.562 45.2158 195.937 45.2158C196.312 45.2158 196.622 44.9061 196.622 44.5307C196.622 44.1553 196.312 43.8456 195.937 43.8456Z" fill="url(#paint32_linear_854_3922)"/>
<path d="M157.995 21.1721H125.843V22.4672H157.995V21.1721Z" fill="url(#paint33_linear_854_3922)"/>
<path d="M159.206 23.2742C158.399 23.2742 157.742 22.6173 157.742 21.8102C157.742 21.0031 158.399 20.3462 159.206 20.3462C160.013 20.3462 160.669 21.0031 160.669 21.8102C160.66 22.6267 160.003 23.2742 159.206 23.2742ZM159.206 21.1345C158.831 21.1345 158.521 21.4442 158.521 21.8196C158.521 22.195 158.831 22.5047 159.206 22.5047C159.581 22.5047 159.891 22.195 159.891 21.8196C159.881 21.4442 159.581 21.1345 159.206 21.1345Z" fill="url(#paint34_linear_854_3922)"/>
<path d="M154.036 25.123H121.884V26.4181H154.036V25.123Z" fill="url(#paint35_linear_854_3922)"/>
<path d="M155.247 27.2346C154.44 27.2346 153.783 26.5777 153.783 25.7706C153.783 24.9635 154.44 24.3066 155.247 24.3066C156.053 24.3066 156.71 24.9635 156.71 25.7706C156.701 26.5777 156.044 27.2346 155.247 27.2346ZM155.247 25.0949C154.871 25.0949 154.562 25.4046 154.562 25.78C154.562 26.1554 154.871 26.4651 155.247 26.4651C155.622 26.4651 155.931 26.1554 155.931 25.78C155.931 25.4046 155.622 25.0949 155.247 25.0949Z" fill="url(#paint36_linear_854_3922)"/>
<path d="M169.338 32.4338L160.125 41.6496L159.215 40.7393L168.428 31.5234L169.338 32.4338Z" fill="url(#paint37_linear_854_3922)"/>
<path d="M169.704 32.6215C168.897 32.6215 168.241 31.9645 168.241 31.1574C168.241 30.3504 168.897 29.6934 169.704 29.6934C170.511 29.6934 171.168 30.3504 171.168 31.1574C171.159 31.9645 170.511 32.6215 169.704 32.6215ZM169.704 30.4817C169.329 30.4817 169.019 30.7914 169.019 31.1668C169.019 31.5422 169.329 31.8519 169.704 31.8519C170.08 31.8519 170.389 31.5422 170.389 31.1668C170.38 30.7821 170.08 30.4817 169.704 30.4817Z" fill="url(#paint38_linear_854_3922)"/>
<path d="M160.097 40.2982H127.044V41.5933H160.097V40.2982Z" fill="url(#paint39_linear_854_3922)"/>
<path d="M179.95 17.7278H167.931V19.0229H179.95V17.7278Z" fill="url(#paint40_linear_854_3922)"/>
<path d="M181.16 19.8394C180.353 19.8394 179.696 19.1825 179.696 18.3754C179.696 17.5683 180.353 16.9114 181.16 16.9114C181.967 16.9114 182.624 17.5683 182.624 18.3754C182.614 19.1825 181.957 19.8394 181.16 19.8394ZM181.16 17.6997C180.785 17.6997 180.475 18.0094 180.475 18.3848C180.475 18.7602 180.785 19.0699 181.16 19.0699C181.535 19.0699 181.845 18.7602 181.845 18.3848C181.835 18 181.535 17.6997 181.16 17.6997Z" fill="url(#paint41_linear_854_3922)"/>
<path d="M168.841 18.6476L157.405 30.097L156.485 29.1773L167.922 17.7278L168.841 18.6476Z" fill="url(#paint42_linear_854_3922)"/>
<path d="M157.414 28.7925H125.261V30.0876H157.414V28.7925Z" fill="url(#paint43_linear_854_3922)"/>
<path d="M186.348 21.7164H168.71V23.0115H186.348V21.7164Z" fill="url(#paint44_linear_854_3922)"/>
<path d="M187.559 23.828C186.752 23.828 186.095 23.171 186.095 22.3639C186.095 21.5568 186.752 20.8999 187.559 20.8999C188.365 20.8999 189.022 21.5568 189.022 22.3639C189.013 23.171 188.356 23.828 187.559 23.828ZM187.559 21.6882C187.183 21.6882 186.874 21.9979 186.874 22.3733C186.874 22.7487 187.183 23.0584 187.559 23.0584C187.934 23.0584 188.243 22.7487 188.243 22.3733C188.234 21.9979 187.934 21.6882 187.559 21.6882Z" fill="url(#paint45_linear_854_3922)"/>
<path d="M169.62 22.6361L158.183 34.0855L157.264 33.1658L168.701 21.7164L169.62 22.6361Z" fill="url(#paint46_linear_854_3922)"/>
<path d="M158.183 32.7904H126.031V34.0855H158.183V32.7904Z" fill="url(#paint47_linear_854_3922)"/>
<path d="M181.789 25.6955H169.489V26.9906H181.789V25.6955Z" fill="url(#paint48_linear_854_3922)"/>
<path d="M182.999 27.8071C182.192 27.8071 181.535 27.1501 181.535 26.3431C181.535 25.536 182.192 24.879 182.999 24.879C183.806 24.879 184.462 25.536 184.462 26.3431C184.453 27.1501 183.796 27.8071 182.999 27.8071ZM182.999 25.658C182.623 25.658 182.314 25.9677 182.314 26.3431C182.314 26.7184 182.623 27.0281 182.999 27.0281C183.374 27.0281 183.684 26.7184 183.684 26.3431C183.674 25.9677 183.374 25.658 182.999 25.658Z" fill="url(#paint49_linear_854_3922)"/>
<path d="M170.399 26.6152L158.962 38.0552L158.042 37.1355L169.479 25.6955L170.399 26.6152Z" fill="url(#paint50_linear_854_3922)"/>
<path d="M158.962 36.7601H126.809V38.0552H158.962V36.7601Z" fill="url(#paint51_linear_854_3922)"/>
<path d="M39.0862 14.5558H82.3379V13.2513H39.0862V14.5558Z" fill="url(#paint52_linear_854_3922)"/>
<path d="M36.4216 13.9082C36.4216 13.1011 37.0784 12.4442 37.8852 12.4442C38.6921 12.4442 39.3489 13.1011 39.3489 13.9082C39.3489 14.7153 38.6921 15.3723 37.8852 15.3723C37.069 15.3629 36.4216 14.7059 36.4216 13.9082ZM37.2003 13.9082C37.2003 14.2836 37.51 14.5933 37.8852 14.5933C38.2605 14.5933 38.5701 14.2836 38.5701 13.9082C38.5701 13.5328 38.2605 13.2231 37.8852 13.2231C37.5006 13.2231 37.2003 13.5328 37.2003 13.9082Z" fill="url(#paint53_linear_854_3922)"/>
<path d="M43.0452 18.5068H81.4369V17.2117H43.0452V18.5068Z" fill="url(#paint54_linear_854_3922)"/>
<path d="M40.3713 17.8592C40.3713 17.0521 41.0281 16.3952 41.835 16.3952C42.6418 16.3952 43.2986 17.0521 43.2986 17.8592C43.2986 18.6663 42.6418 19.3233 41.835 19.3233C41.0281 19.3233 40.3713 18.6663 40.3713 17.8592ZM41.1501 17.8592C41.1501 18.2346 41.4597 18.5443 41.835 18.5443C42.2102 18.5443 42.5199 18.2346 42.5199 17.8592C42.5199 17.4838 42.2102 17.1741 41.835 17.1741C41.4597 17.1835 41.1501 17.4838 41.1501 17.8592Z" fill="url(#paint55_linear_854_3922)"/>
<path d="M2.66455 48.7258H78.5943V47.4307H2.66455V48.7258Z" fill="url(#paint56_linear_854_3922)"/>
<path d="M0 48.0782C0 47.2711 0.656751 46.6142 1.46362 46.6142C2.27048 46.6142 2.92723 47.2711 2.92723 48.0782C2.92723 48.8853 2.27048 49.5422 1.46362 49.5422C0.656751 49.5422 0 48.8853 0 48.0782ZM0.778718 48.0782C0.778718 48.4536 1.08833 48.7633 1.46362 48.7633C1.8389 48.7633 2.14851 48.4536 2.14851 48.0782C2.14851 47.7028 1.8389 47.3931 1.46362 47.3931C1.08833 47.4025 0.778718 47.7028 0.778718 48.0782Z" fill="url(#paint57_linear_854_3922)"/>
<path d="M10.2642 45.1783H77.7031V43.8832H10.2642V45.1783Z" fill="url(#paint58_linear_854_3922)"/>
<path d="M7.59961 44.5307C7.59961 43.7236 8.25636 43.0667 9.06322 43.0667C9.87009 43.0667 10.5268 43.7236 10.5268 44.5307C10.5268 45.3378 9.87009 45.9948 9.06322 45.9948C8.25636 45.9854 7.59961 45.3378 7.59961 44.5307ZM8.37833 44.5307C8.37833 44.9061 8.68794 45.2158 9.06322 45.2158C9.43851 45.2158 9.74812 44.9061 9.74812 44.5307C9.74812 44.1553 9.43851 43.8456 9.06322 43.8456C8.67856 43.8456 8.37833 44.1553 8.37833 44.5307Z" fill="url(#paint59_linear_854_3922)"/>
<path d="M47.0046 22.4672H79.1573V21.1721H47.0046V22.4672Z" fill="url(#paint60_linear_854_3922)"/>
<path d="M44.3401 21.8196C44.3401 21.0125 44.9968 20.3556 45.8037 20.3556C46.6106 20.3556 47.2673 21.0125 47.2673 21.8196C47.2673 22.6267 46.6106 23.2836 45.8037 23.2836C44.9968 23.2743 44.3401 22.6267 44.3401 21.8196ZM45.1188 21.8196C45.1188 22.195 45.4284 22.5047 45.8037 22.5047C46.179 22.5047 46.4886 22.195 46.4886 21.8196C46.4886 21.4442 46.179 21.1345 45.8037 21.1345C45.419 21.1345 45.1188 21.4442 45.1188 21.8196Z" fill="url(#paint61_linear_854_3922)"/>
<path d="M50.9639 26.4275H83.1165V25.123H50.9639V26.4275Z" fill="url(#paint62_linear_854_3922)"/>
<path d="M48.2993 25.78C48.2993 24.9729 48.9561 24.316 49.7629 24.316C50.5698 24.316 51.2265 24.9729 51.2265 25.78C51.2265 26.5871 50.5698 27.244 49.7629 27.244C48.9467 27.2346 48.2993 26.5777 48.2993 25.78ZM49.078 25.78C49.078 26.1554 49.3876 26.4651 49.7629 26.4651C50.1382 26.4651 50.4478 26.1554 50.4478 25.78C50.4478 25.4046 50.1382 25.0949 49.7629 25.0949C49.3783 25.0949 49.078 25.4046 49.078 25.78Z" fill="url(#paint63_linear_854_3922)"/>
<path d="M35.6614 32.4338L44.8653 41.6496L45.7847 40.7393L36.5714 31.5234L35.6614 32.4338Z" fill="url(#paint64_linear_854_3922)"/>
<path d="M33.8413 31.1574C33.8413 30.3504 34.4981 29.6934 35.3049 29.6934C36.1118 29.6934 36.7685 30.3504 36.7685 31.1574C36.7685 31.9645 36.1118 32.6215 35.3049 32.6215C34.4887 32.6215 33.8413 31.9645 33.8413 31.1574ZM34.62 31.1574C34.62 31.5328 34.9296 31.8425 35.3049 31.8425C35.6802 31.8425 35.9898 31.5328 35.9898 31.1574C35.9898 30.7821 35.6802 30.4724 35.3049 30.4724C34.9203 30.4817 34.62 30.7821 34.62 31.1574Z" fill="url(#paint65_linear_854_3922)"/>
<path d="M44.9028 41.6027H77.9562V40.2982H44.9028V41.6027Z" fill="url(#paint66_linear_854_3922)"/>
<path d="M25.0503 19.0323H37.0688V17.7278H25.0503V19.0323Z" fill="url(#paint67_linear_854_3922)"/>
<path d="M22.3857 18.3754C22.3857 17.5683 23.0425 16.9114 23.8494 16.9114C24.6562 16.9114 25.313 17.5683 25.313 18.3754C25.313 19.1825 24.6562 19.8394 23.8494 19.8394C23.0331 19.8394 22.3857 19.1825 22.3857 18.3754ZM23.1645 18.3754C23.1645 18.7508 23.4741 19.0605 23.8494 19.0605C24.2246 19.0605 24.5343 18.7508 24.5343 18.3754C24.5343 18 24.2246 17.6903 23.8494 17.6903C23.4647 17.6997 23.1645 18 23.1645 18.3754Z" fill="url(#paint68_linear_854_3922)"/>
<path d="M36.1587 18.6476L47.5955 30.097L48.515 29.1773L37.0781 17.7278L36.1587 18.6476Z" fill="url(#paint69_linear_854_3922)"/>
<path d="M47.5862 30.097H79.7388V28.7925H47.5862V30.097Z" fill="url(#paint70_linear_854_3922)"/>
<path d="M18.6519 23.0209H36.2903V21.7164H18.6519V23.0209Z" fill="url(#paint71_linear_854_3922)"/>
<path d="M15.9873 22.3733C15.9873 21.5662 16.6441 20.9093 17.4509 20.9093C18.2578 20.9093 18.9145 21.5662 18.9145 22.3733C18.9145 23.1804 18.2578 23.8374 17.4509 23.8374C16.6347 23.828 15.9873 23.171 15.9873 22.3733ZM16.766 22.3733C16.766 22.7487 17.0756 23.0584 17.4509 23.0584C17.8262 23.0584 18.1358 22.7487 18.1358 22.3733C18.1358 21.9979 17.8262 21.6882 17.4509 21.6882C17.0663 21.6882 16.766 21.9979 16.766 22.3733Z" fill="url(#paint72_linear_854_3922)"/>
<path d="M35.3801 22.6361L46.817 34.0855L47.7364 33.1658L36.2996 21.7164L35.3801 22.6361Z" fill="url(#paint73_linear_854_3922)"/>
<path d="M46.8171 34.0855H78.9698V32.7904H46.8171V34.0855Z" fill="url(#paint74_linear_854_3922)"/>
<path d="M23.2114 26.9906H35.5114V25.6955H23.2114V26.9906Z" fill="url(#paint75_linear_854_3922)"/>
<path d="M20.5469 26.3431C20.5469 25.536 21.2036 24.879 22.0105 24.879C22.8174 24.879 23.4741 25.536 23.4741 26.3431C23.4741 27.1501 22.8174 27.8071 22.0105 27.8071C21.2036 27.8071 20.5469 27.1501 20.5469 26.3431ZM21.3256 26.3431C21.3256 26.7184 21.6352 27.0281 22.0105 27.0281C22.3858 27.0281 22.6954 26.7184 22.6954 26.3431C22.6954 25.9677 22.3858 25.658 22.0105 25.658C21.6258 25.658 21.3256 25.9677 21.3256 26.3431Z" fill="url(#paint76_linear_854_3922)"/>
<path d="M34.6013 26.6152L46.0382 38.0552L46.9576 37.1355L35.5208 25.6955L34.6013 26.6152Z" fill="url(#paint77_linear_854_3922)"/>
<path d="M46.0381 38.0552H78.1907V36.7601H46.0381V38.0552Z" fill="url(#paint78_linear_854_3922)"/>
<path d="M39.0859 81.6006H82.4221V82.9051H39.0859V81.6006Z" fill="url(#paint79_linear_854_3922)"/>
<path d="M37.8757 80.7935C38.6826 80.7935 39.3393 81.4505 39.3393 82.2575C39.3393 83.0646 38.6826 83.7216 37.8757 83.7216C37.0689 83.7216 36.4121 83.0646 36.4121 82.2575C36.4215 81.4505 37.0689 80.7935 37.8757 80.7935ZM37.8757 82.9332C38.251 82.9332 38.5606 82.6235 38.5606 82.2482C38.5606 81.8728 38.251 81.5631 37.8757 81.5631C37.5004 81.5631 37.1908 81.8728 37.1908 82.2482C37.2002 82.6329 37.5004 82.9332 37.8757 82.9332Z" fill="url(#paint80_linear_854_3922)"/>
<path d="M43.0452 77.6496H75.1978V78.9447H43.0452V77.6496Z" fill="url(#paint81_linear_854_3922)"/>
<path d="M41.835 76.8331C42.6418 76.8331 43.2986 77.4901 43.2986 78.2972C43.2986 79.1042 42.6418 79.7612 41.835 79.7612C41.0281 79.7612 40.3713 79.1042 40.3713 78.2972C40.3713 77.4901 41.0281 76.8331 41.835 76.8331ZM41.835 78.9729C42.2102 78.9729 42.5199 78.6632 42.5199 78.2878C42.5199 77.9124 42.2102 77.6027 41.835 77.6027C41.4597 77.6027 41.1501 77.9124 41.1501 78.2878C41.1501 78.6725 41.4597 78.9729 41.835 78.9729Z" fill="url(#paint82_linear_854_3922)"/>
<path d="M10.2639 50.9781H77.7028V52.2732H10.2639V50.9781Z" fill="url(#paint83_linear_854_3922)"/>
<path d="M9.0537 50.171C9.86057 50.171 10.5173 50.828 10.5173 51.635C10.5173 52.4421 9.86057 53.0991 9.0537 53.0991C8.24684 53.0991 7.59009 52.4421 7.59009 51.635C7.59947 50.828 8.25622 50.171 9.0537 50.171ZM9.0537 52.3108C9.42899 52.3108 9.7386 52.0011 9.7386 51.6257C9.7386 51.2503 9.42899 50.9406 9.0537 50.9406C8.67842 50.9406 8.36881 51.2503 8.36881 51.6257C8.37819 52.0011 8.67842 52.3108 9.0537 52.3108Z" fill="url(#paint84_linear_854_3922)"/>
<path d="M47.0044 73.6893H79.157V74.9844H47.0044V73.6893Z" fill="url(#paint85_linear_854_3922)"/>
<path d="M45.7942 72.8822C46.601 72.8822 47.2578 73.5391 47.2578 74.3462C47.2578 75.1533 46.601 75.8103 45.7942 75.8103C44.9873 75.8103 44.3306 75.1533 44.3306 74.3462C44.3399 73.5298 44.9967 72.8822 45.7942 72.8822ZM45.7942 75.0219C46.1695 75.0219 46.4791 74.7122 46.4791 74.3368C46.4791 73.9615 46.1695 73.6518 45.7942 73.6518C45.4189 73.6518 45.1093 73.9615 45.1093 74.3368C45.1187 74.7122 45.4189 75.0219 45.7942 75.0219Z" fill="url(#paint86_linear_854_3922)"/>
<path d="M50.9639 69.7289H83.1165V71.0334H50.9639V69.7289Z" fill="url(#paint87_linear_854_3922)"/>
<path d="M49.7537 68.9218C50.5605 68.9218 51.2173 69.5787 51.2173 70.3858C51.2173 71.1929 50.5605 71.8499 49.7537 71.8499C48.9468 71.8499 48.29 71.1929 48.29 70.3858C48.2994 69.5787 48.9468 68.9218 49.7537 68.9218ZM49.7537 71.0615C50.1289 71.0615 50.4385 70.7518 50.4385 70.3765C50.4385 70.0011 50.1289 69.6914 49.7537 69.6914C49.3784 69.6914 49.0688 70.0011 49.0688 70.3765C49.0781 70.7612 49.3784 71.0615 49.7537 71.0615Z" fill="url(#paint88_linear_854_3922)"/>
<path d="M35.6616 63.7226L44.8655 54.5068L45.785 55.4265L36.5717 64.6423L35.6616 63.7226Z" fill="url(#paint89_linear_854_3922)"/>
<path d="M35.2956 63.5349C36.1025 63.5349 36.7593 64.1918 36.7593 64.9989C36.7593 65.806 36.1025 66.463 35.2956 66.463C34.4888 66.463 33.832 65.806 33.832 64.9989C33.8414 64.1918 34.4888 63.5349 35.2956 63.5349ZM35.2956 65.684C35.6709 65.684 35.9805 65.3743 35.9805 64.9989C35.9805 64.6235 35.6709 64.3138 35.2956 64.3138C34.9204 64.3138 34.6107 64.6235 34.6107 64.9989C34.6201 65.3743 34.9204 65.684 35.2956 65.684Z" fill="url(#paint90_linear_854_3922)"/>
<path d="M44.9031 54.5537H77.9564V55.8582H44.9031V54.5537Z" fill="url(#paint91_linear_854_3922)"/>
<path d="M25.0503 77.1335H37.0688V78.4286H25.0503V77.1335Z" fill="url(#paint92_linear_854_3922)"/>
<path d="M23.8401 76.317C24.6469 76.317 25.3037 76.9739 25.3037 77.781C25.3037 78.5881 24.6469 79.2451 23.8401 79.2451C23.0332 79.2451 22.3765 78.5881 22.3765 77.781C22.3858 76.9739 23.0332 76.317 23.8401 76.317ZM23.8401 78.4567C24.2154 78.4567 24.525 78.147 24.525 77.7717C24.525 77.3963 24.2154 77.0866 23.8401 77.0866C23.4648 77.0866 23.1552 77.3963 23.1552 77.7717C23.1646 78.1564 23.4648 78.4567 23.8401 78.4567Z" fill="url(#paint93_linear_854_3922)"/>
<path d="M36.1589 77.5089L47.5958 66.0594L48.5152 66.9792L37.0784 78.4286L36.1589 77.5089Z" fill="url(#paint94_linear_854_3922)"/>
<path d="M47.5864 66.0594H79.7391V67.3639H47.5864V66.0594Z" fill="url(#paint95_linear_854_3922)"/>
<path d="M18.6516 73.1356H36.2901V74.44H18.6516V73.1356Z" fill="url(#paint96_linear_854_3922)"/>
<path d="M17.4414 72.3285C18.2483 72.3285 18.905 72.9854 18.905 73.7925C18.905 74.5996 18.2483 75.2565 17.4414 75.2565C16.6345 75.2565 15.9778 74.5996 15.9778 73.7925C15.9872 72.9854 16.6345 72.3285 17.4414 72.3285ZM17.4414 74.4682C17.8167 74.4682 18.1263 74.1585 18.1263 73.7831C18.1263 73.4077 17.8167 73.098 17.4414 73.098C17.0661 73.098 16.7565 73.4077 16.7565 73.7831C16.7659 74.1679 17.0661 74.4682 17.4414 74.4682Z" fill="url(#paint97_linear_854_3922)"/>
<path d="M35.3801 73.5203L46.817 62.0709L47.7364 62.9906L36.2996 74.4401L35.3801 73.5203Z" fill="url(#paint98_linear_854_3922)"/>
<path d="M46.8169 62.0709H78.9695V63.3754H46.8169V62.0709Z" fill="url(#paint99_linear_854_3922)"/>
<path d="M23.2114 69.1658H35.5114V70.4609H23.2114V69.1658Z" fill="url(#paint100_linear_854_3922)"/>
<path d="M22.0012 68.3587C22.8081 68.3587 23.4648 69.0156 23.4648 69.8227C23.4648 70.6298 22.8081 71.2867 22.0012 71.2867C21.1943 71.2867 20.5376 70.6298 20.5376 69.8227C20.547 69.0063 21.2037 68.3587 22.0012 68.3587ZM22.0012 70.4984C22.3765 70.4984 22.6861 70.1887 22.6861 69.8133C22.6861 69.438 22.3765 69.1283 22.0012 69.1283C21.6259 69.1283 21.3163 69.438 21.3163 69.8133C21.3257 70.1887 21.6259 70.4984 22.0012 70.4984Z" fill="url(#paint101_linear_854_3922)"/>
<path d="M34.6016 69.5506L46.0384 58.1011L46.9579 59.0208L35.521 70.4609L34.6016 69.5506Z" fill="url(#paint102_linear_854_3922)"/>
<path d="M46.0383 58.1011H78.191V59.3962H46.0383V58.1011Z" fill="url(#paint103_linear_854_3922)"/>
<g opacity="0.13">
<path opacity="0.076923" d="M100.661 97.6298C94.3375 95.2179 88.4268 91.5766 83.0977 86.7998C77.9938 82.2294 73.5279 76.7205 69.8126 70.4327C66.1442 64.22 63.3014 57.3879 61.3593 50.1147C59.3796 42.7101 58.3757 35.0052 58.3757 27.2065C58.3757 23.2273 58.6478 19.2012 59.1732 15.2503L60.5242 5.20855L70.1879 8.23983C73.7249 9.34723 77.4121 9.91032 81.1462 9.91032C87.5073 9.91032 93.8496 8.22106 99.4883 5.01147L103.701 2.61835L107.913 5.01147C107.979 5.049 108.035 5.07716 108.101 5.1147L108.12 5.12408C108.214 5.17101 108.298 5.21793 108.383 5.26485C113.909 8.29614 120.082 9.90093 126.256 9.90093C129.99 9.90093 133.677 9.33785 137.214 8.23044L146.878 5.19916L148.229 15.2409C148.763 19.1919 149.026 23.2179 149.026 27.1971C149.026 34.9207 148.041 42.5693 146.099 49.9082C144.194 57.1157 141.398 63.9009 137.796 70.0761C134.146 76.3358 129.755 81.8259 124.726 86.4056C119.482 91.1825 113.665 94.8613 107.444 97.3389L107.294 97.3952C107.116 97.4703 106.938 97.536 106.75 97.611L103.71 98.7748L100.661 97.6298Z" fill="black"/>
<path opacity="0.1538" d="M100.445 97.4046C94.1217 94.9927 88.2109 91.3514 82.8819 86.5746C77.778 82.0042 73.3121 76.4953 69.5968 70.2075C65.9283 63.9948 63.0855 57.1627 61.1434 49.8989C59.1638 42.4943 58.1599 34.7894 58.1599 26.9906C58.1599 23.0115 58.432 18.9854 58.9574 15.0344L60.3084 4.99273L69.972 8.02401C73.5091 9.13141 77.1963 9.6945 80.9304 9.6945C87.2915 9.6945 93.6338 8.00524 99.2725 4.79564L103.485 2.40253L107.698 4.79564C107.763 4.83318 107.82 4.86134 107.885 4.89888L107.904 4.90826C107.998 4.95519 108.082 5.00211 108.167 5.04903C113.693 8.08032 119.866 9.68511 126.04 9.68511C129.774 9.68511 133.461 9.12203 136.998 8.01462L146.662 4.98334L148.013 15.0251C148.548 18.976 148.81 23.0021 148.81 26.9813C148.81 34.7049 147.825 42.3535 145.883 49.6924C143.978 56.8999 141.183 63.6851 137.58 69.8603C133.93 76.1199 129.539 81.61 124.51 86.1898C119.266 90.9667 113.449 94.6455 107.229 97.1231L107.078 97.1794C106.9 97.2545 106.722 97.3202 106.534 97.3952L103.494 98.5589L100.445 97.4046Z" fill="black"/>
<path opacity="0.2308" d="M100.22 97.1887C93.8966 94.7768 87.9858 91.1356 82.6568 86.3587C77.5529 81.7883 73.087 76.2794 69.3717 69.9917C65.7032 63.7789 62.8604 56.9468 60.9183 49.683C58.9387 42.2784 57.9348 34.5735 57.9348 26.7748C57.9348 22.7956 58.2069 18.7695 58.7323 14.8186L60.0833 4.77684L69.7469 7.80813C73.284 8.91553 76.9712 9.47862 80.7053 9.47862C87.0664 9.47862 93.4087 7.78936 99.0474 4.57976L103.26 2.18665L107.473 4.57976C107.538 4.6173 107.595 4.64546 107.66 4.683L107.679 4.69238C107.773 4.7393 107.857 4.78623 107.942 4.83315C113.468 7.86443 119.641 9.46923 125.815 9.46923C129.549 9.46923 133.236 8.90615 136.773 7.79874L146.437 4.76746L147.788 14.8092C148.322 18.7602 148.585 22.7862 148.585 26.7654C148.585 34.489 147.6 42.1376 145.658 49.4765C143.753 56.684 140.957 63.4692 137.355 69.6444C133.705 75.9041 129.314 81.3941 124.285 85.9739C119.041 90.7508 113.224 94.4296 107.003 96.9072L106.853 96.9635C106.675 97.0386 106.497 97.1043 106.309 97.1794L103.269 98.3431L100.22 97.1887Z" fill="black"/>
<path opacity="0.3077" d="M100.004 96.9729C93.6808 94.561 87.77 90.9197 82.441 86.1429C77.3371 81.5725 72.8712 76.0636 69.1558 69.7758C65.4874 63.5631 62.6446 56.731 60.7025 49.4578C58.7229 42.0532 57.719 34.3483 57.719 26.5495C57.719 22.5704 57.9911 18.5443 58.5165 14.5933L59.8675 4.55162L69.5311 7.58291C73.0682 8.69031 76.7554 9.2534 80.4895 9.2534C86.8506 9.2534 93.1929 7.56414 98.8316 4.35454L103.044 1.96143L107.257 4.35454C107.322 4.39208 107.379 4.42024 107.444 4.45778L107.463 4.46716C107.557 4.51408 107.641 4.56101 107.726 4.60793C113.252 7.63921 119.425 9.24401 125.599 9.24401C129.333 9.24401 133.02 8.68092 136.557 7.57352L146.221 4.54224L147.572 14.5839C148.107 18.5349 148.369 22.561 148.369 26.5402C148.369 34.2638 147.384 41.9124 145.442 49.2513C143.538 56.4588 140.742 63.244 137.139 69.4192C133.489 75.6788 129.098 81.1689 124.07 85.7487C118.825 90.5256 113.008 94.2044 106.788 96.682L106.638 96.7383C106.459 96.8134 106.281 96.879 106.093 96.9541L103.054 98.1178L100.004 96.9729Z" fill="black"/>
<path opacity="0.3846" d="M99.7885 96.7476C93.465 94.3357 87.5542 90.6945 82.2251 85.9176C77.1213 81.3472 72.6553 75.8383 68.94 69.5506C65.2716 63.3378 62.4288 56.5057 60.4867 49.2419C58.5071 41.8373 57.5032 34.1324 57.5032 26.3337C57.5032 22.3545 57.7753 18.3284 58.3007 14.3775L59.6517 4.33574L69.3153 7.36703C72.8524 8.47443 76.5396 9.03752 80.2736 9.03752C86.6347 9.03752 92.9771 7.34826 98.6158 4.13866L102.828 1.74554L107.041 4.13866C107.107 4.1762 107.163 4.20436 107.229 4.24189L107.247 4.25128C107.341 4.2982 107.426 4.34513 107.51 4.39205C113.036 7.42333 119.21 9.02813 125.383 9.02813C129.117 9.02813 132.804 8.46504 136.341 7.35764L146.005 4.32636L147.356 14.3681C147.891 18.3191 148.154 22.3451 148.154 26.3243C148.154 34.0479 147.168 41.6965 145.226 49.0354C143.322 56.2429 140.526 63.0281 136.923 69.2033C133.273 75.463 128.883 80.9531 123.854 85.5328C118.609 90.3097 112.792 93.9885 106.572 96.4661L106.422 96.5224C106.243 96.5975 106.065 96.6632 105.878 96.7383L102.838 97.902L99.7885 96.7476Z" fill="black"/>
<path opacity="0.4615" d="M99.5727 96.5318C93.2491 94.1199 87.3384 90.4786 82.0093 85.7018C76.9054 81.1314 72.4395 75.6225 68.7242 69.3347C65.0558 63.122 62.213 56.2899 60.2709 49.0261C58.2912 41.6215 57.2874 33.9166 57.2874 26.1178C57.2874 22.1387 57.5594 18.1126 58.0848 14.1616L59.4359 4.11992L69.0995 7.1512C72.6366 8.25861 76.3237 8.82169 80.0485 8.82169C86.4096 8.82169 92.7519 7.13244 98.3906 3.92284L102.603 1.52972L106.816 3.92284C106.881 3.96038 106.938 3.98854 107.003 4.02607L107.022 4.03546C107.116 4.08238 107.2 4.12931 107.285 4.17623C112.811 7.20751 118.984 8.81231 125.158 8.81231C128.892 8.81231 132.579 8.24922 136.116 7.14182L145.78 4.11054L147.131 14.1522C147.666 18.1032 147.928 22.1293 147.928 26.1085C147.928 33.8321 146.943 41.4807 145.001 48.8196C143.097 56.0271 140.301 62.8123 136.698 68.9875C133.048 75.2471 128.657 80.7372 123.629 85.317C118.384 90.0939 112.567 93.7727 106.347 96.2503L106.197 96.3066C106.018 96.3817 105.84 96.4473 105.652 96.5224L102.613 97.6861L99.5727 96.5318Z" fill="black"/>
<path opacity="0.5385" d="M99.3476 96.316C93.024 93.9041 87.1133 90.2628 81.7842 85.4859C76.6803 80.9156 72.2144 75.4067 68.4991 69.1189C64.8307 62.9062 61.9879 56.0741 60.0458 48.8009C58.0661 41.3963 57.0623 33.6914 57.0623 25.8926C57.0623 21.9135 57.3343 17.8874 57.8597 13.9364L59.2108 3.8947L68.8744 6.92599C72.4115 8.03339 76.0986 8.59648 79.8327 8.59648C86.1938 8.59648 92.5362 6.90722 98.1748 3.69762L102.387 1.3045L106.6 3.69762C106.666 3.73516 106.722 3.76332 106.788 3.80085L106.806 3.81024C106.9 3.85716 106.985 3.90409 107.069 3.95101C112.595 6.98229 118.769 8.58709 124.942 8.58709C128.676 8.58709 132.363 8.024 135.9 6.9166L145.564 3.88532L146.915 13.927C147.45 17.878 147.713 21.9041 147.713 25.8832C147.713 33.6069 146.727 41.2555 144.785 48.5944C142.881 55.8019 140.085 62.5871 136.482 68.7623C132.833 75.0219 128.442 80.512 123.413 85.0918C118.168 89.8686 112.351 93.5475 106.131 96.025L105.981 96.0814C105.803 96.1564 105.624 96.2221 105.437 96.2972L102.397 97.4609L99.3476 96.316Z" fill="black"/>
<path opacity="0.6154" d="M99.1318 96.0907C92.8082 93.6788 86.8975 90.0375 81.5684 85.2607C76.4645 80.6903 71.9986 75.1814 68.2833 68.8936C64.6149 62.6809 61.7721 55.8488 59.83 48.585C57.8503 41.1804 56.8464 33.4755 56.8464 25.6767C56.8464 21.6976 57.1185 17.6715 57.6439 13.7205L58.9949 3.67882L68.6586 6.7101C72.1956 7.81751 75.8828 8.38059 79.6169 8.38059C85.978 8.38059 92.3203 6.69133 97.959 3.48174L102.172 1.08862L106.384 3.48174C106.45 3.51928 106.506 3.54743 106.572 3.58497L106.591 3.59436C106.684 3.64128 106.769 3.68821 106.853 3.73513C112.379 6.76641 118.553 8.37121 124.726 8.37121C128.46 8.37121 132.148 7.80812 135.685 6.70072L145.348 3.66944L146.699 13.7111C147.234 17.6621 147.497 21.6882 147.497 25.6674C147.497 33.391 146.512 41.0396 144.57 48.3785C142.665 55.586 139.869 62.3712 136.266 68.5464C132.617 74.806 128.226 80.2961 123.197 84.8759C117.952 89.6528 112.135 93.3316 105.915 95.8092L105.765 95.8655C105.587 95.9406 105.408 96.0062 105.221 96.0813L102.181 97.245L99.1318 96.0907Z" fill="black"/>
<path opacity="0.6923" d="M98.916 95.8749C92.5924 93.463 86.6816 89.8217 81.3526 85.0449C76.2487 80.4745 71.7828 74.9656 68.0675 68.6778C64.399 62.4651 61.5562 55.633 59.6141 48.3692C57.6345 40.9646 56.6306 33.2597 56.6306 25.4609C56.6306 21.4818 56.9027 17.4557 57.4281 13.5047L58.7791 3.463L68.4427 6.49428C71.9798 7.60169 75.667 8.16477 79.3917 8.16477C85.7528 8.16477 92.0951 6.47551 97.7338 3.26592L101.946 0.872803L106.159 3.26592C106.225 3.30346 106.281 3.33161 106.347 3.36915L106.365 3.37854C106.459 3.42546 106.544 3.47239 106.628 3.51931C112.154 6.55059 118.328 8.15539 124.501 8.15539C128.235 8.15539 131.922 7.5923 135.459 6.4849L145.123 3.45362L146.474 13.4953C147.009 17.4463 147.272 21.4724 147.272 25.4515C147.272 33.1752 146.286 40.8238 144.344 48.1627C142.44 55.3702 139.644 62.1554 136.041 68.3306C132.391 74.5902 128.001 80.0803 122.972 84.6601C117.727 89.4369 111.91 93.1158 105.69 95.5933L105.54 95.6497C105.362 95.7247 105.183 95.7904 104.996 95.8655L101.956 97.0292L98.916 95.8749Z" fill="black"/>
<path opacity="0.7692" d="M98.6909 95.659C92.3673 93.2471 86.4565 89.6058 81.1275 84.829C76.0236 80.2586 71.5577 74.7497 67.8424 68.4619C64.1739 62.2492 61.3311 55.4171 59.389 48.1439C57.4094 40.7393 56.4055 33.0344 56.4055 25.2356C56.4055 21.2565 56.6776 17.2304 57.203 13.2794L58.554 3.23773L68.2176 6.26902C71.7547 7.37642 75.4419 7.93951 79.176 7.93951C85.5371 7.93951 91.8794 6.25025 97.5181 3.04065L101.731 0.656921L105.943 3.05004C106.009 3.08758 106.065 3.11573 106.131 3.15327L106.15 3.16266C106.244 3.20958 106.328 3.2565 106.412 3.30343C111.938 6.33471 118.112 7.93951 124.285 7.93951C128.019 7.93951 131.707 7.37642 135.244 6.26902L144.907 3.23773L146.258 13.2794C146.793 17.2304 147.056 21.2565 147.056 25.2356C147.056 32.9593 146.071 40.6079 144.129 47.9468C142.224 55.1543 139.428 61.9395 135.825 68.1147C132.176 74.3743 127.785 79.8644 122.756 84.4442C117.511 89.2211 111.695 92.8999 105.474 95.3775L105.324 95.4338C105.146 95.5089 104.968 95.5745 104.78 95.6496L101.74 96.8133L98.6909 95.659Z" fill="black"/>
<path opacity="0.8462" d="M98.475 95.4338C92.1515 93.0219 86.2407 89.3806 80.9117 84.6038C75.8078 80.0334 71.3419 74.5245 67.6265 68.2367C63.9581 62.024 61.1153 55.1919 59.1732 47.9281C57.1936 40.5235 56.1897 32.8186 56.1897 25.0198C56.1897 21.0407 56.4618 17.0146 56.9872 13.0636L58.3382 3.02191L68.0018 6.0532C71.5389 7.1606 75.2261 7.72369 78.9602 7.72369C85.3213 7.72369 91.6636 6.03443 97.3023 2.82483L101.515 0.441101L105.727 2.83422C105.793 2.87176 105.849 2.89991 105.915 2.93745L105.934 2.94684C106.028 2.99376 106.112 3.04068 106.197 3.08761C111.723 6.11889 117.896 7.72369 124.07 7.72369C127.804 7.72369 131.491 7.1606 135.028 6.0532L144.692 3.02191L146.043 13.0636C146.577 17.0146 146.84 21.0407 146.84 25.0198C146.84 32.7435 145.855 40.3921 143.913 47.731C142.008 54.9385 139.212 61.7237 135.61 67.8989C131.96 74.1585 127.569 79.6486 122.54 84.2284C117.296 89.0052 111.479 92.6841 105.258 95.1616L105.108 95.2179C104.93 95.293 104.752 95.3587 104.564 95.4338L101.524 96.5975L98.475 95.4338Z" fill="black"/>
<path opacity="0.9231" d="M98.2592 95.2179C91.9357 92.806 86.0249 89.1647 80.6958 84.3879C75.592 79.8175 71.1261 74.3086 67.4107 68.0208C63.7423 61.8081 60.8995 54.976 58.9574 47.7122C56.9778 40.3076 55.9739 32.6027 55.9739 24.8039C55.9739 20.8248 56.246 16.7987 56.7714 12.8477L58.1224 2.80602L67.786 5.8373C71.3231 6.94471 75.0103 7.50779 78.735 7.50779C85.0961 7.50779 91.4384 5.81853 97.0771 2.60894L101.29 0.21582L105.502 2.60894C105.568 2.64648 105.624 2.67463 105.69 2.71217L105.709 2.72156C105.802 2.76848 105.887 2.8154 105.971 2.86233C111.497 5.89361 117.671 7.49841 123.844 7.49841C127.578 7.49841 131.266 6.93532 134.803 5.82792L144.466 2.79663L145.817 12.8383C146.352 16.7893 146.615 20.8154 146.615 24.7945C146.615 32.5182 145.63 40.1668 143.688 47.5057C141.783 54.7132 138.987 61.4984 135.384 67.6736C131.735 73.9332 127.344 79.4233 122.315 84.0031C117.07 88.78 111.254 92.4588 105.033 94.9364L104.883 94.9927C104.705 95.0677 104.527 95.1334 104.339 95.2085L101.299 96.3722L98.2592 95.2179Z" fill="black"/>
<path opacity="0.13" d="M98.0341 95.0021C91.7106 92.5902 85.7998 88.9489 80.4707 84.1721C75.3669 79.6017 70.9009 74.0928 67.1856 67.805C63.5172 61.5923 60.6744 54.7602 58.7323 47.487C56.7527 40.0824 55.7488 32.3775 55.7488 24.5787C55.7488 20.5996 56.0209 16.5735 56.5463 12.6225L57.8973 2.58081L67.5609 5.6121C71.098 6.7195 74.7852 7.28259 78.5193 7.28259C84.8804 7.28259 91.2227 5.59333 96.8614 2.38373L101.074 0L105.287 2.39312C105.352 2.43066 105.409 2.45881 105.474 2.49635L105.493 2.50574C105.587 2.55266 105.671 2.59958 105.756 2.64651C111.282 5.67779 117.455 7.28259 123.629 7.28259C127.363 7.28259 131.05 6.7195 134.587 5.6121L144.251 2.58081L145.602 12.6225C146.136 16.5735 146.399 20.5996 146.399 24.5787C146.399 32.3024 145.414 39.951 143.472 47.2899C141.567 54.4974 138.771 61.2826 135.169 67.4578C131.519 73.7174 127.128 79.2075 122.099 83.7873C116.855 88.5641 111.038 92.243 104.817 94.7205L104.667 94.7769C104.489 94.8519 104.311 94.9176 104.123 94.9927L101.083 96.1564L98.0341 95.0021Z" fill="black"/>
</g>
<path d="M98.0341 95.0021C91.7106 92.5902 85.7998 88.9489 80.4707 84.1721C75.3669 79.6017 70.9009 74.0928 67.1856 67.805C63.5172 61.5923 60.6744 54.7602 58.7323 47.487C56.7527 40.0824 55.7488 32.3775 55.7488 24.5787C55.7488 20.5996 56.0209 16.5735 56.5463 12.6225L57.8973 2.58081L67.5609 5.6121C71.098 6.7195 74.7852 7.28259 78.5193 7.28259C84.8804 7.28259 91.2227 5.59333 96.8614 2.38373L101.074 0L105.287 2.39312C105.352 2.43066 105.409 2.45881 105.474 2.49635L105.493 2.50574C105.587 2.55266 105.671 2.59958 105.756 2.64651C111.282 5.67779 117.455 7.28259 123.629 7.28259C127.363 7.28259 131.05 6.7195 134.587 5.6121L144.251 2.58081L145.602 12.6225C146.136 16.5735 146.399 20.5996 146.399 24.5787C146.399 32.3024 145.414 39.951 143.472 47.2899C141.567 54.4974 138.771 61.2826 135.169 67.4578C131.519 73.7174 127.128 79.2075 122.099 83.7873C116.855 88.5641 111.038 92.243 104.817 94.7205L104.667 94.7769C104.489 94.8519 104.311 94.9176 104.123 94.9927L101.083 96.1564L98.0341 95.0021Z" fill="url(#paint104_linear_854_3922)"/>
<path d="M100.061 89.6809C94.394 87.5224 89.0743 84.2377 84.2612 79.9301C79.5983 75.7539 75.4983 70.6955 72.0832 64.9145C68.6775 59.1522 66.0411 52.7987 64.2303 46.0323C62.3821 39.1063 61.4438 31.8988 61.4438 24.5975C61.4438 20.8717 61.6972 17.099 62.1944 13.4014L62.6448 10.0511L65.8628 11.0646C69.9535 12.3503 74.213 12.9979 78.5194 12.9979C85.8656 12.9979 93.1743 11.0459 99.6761 7.35764L101.083 6.55994L102.491 7.35764C102.594 7.41395 102.697 7.47026 102.81 7.52657C102.885 7.56411 102.96 7.61103 103.044 7.64857C109.405 11.1397 116.526 12.9885 123.648 12.9885C127.954 12.9885 132.213 12.341 136.304 11.0552L139.513 10.0417L139.963 13.3921C140.46 17.099 140.714 20.8623 140.714 24.5881C140.714 31.8238 139.794 38.975 137.974 45.8446C136.201 52.5547 133.602 58.8707 130.253 64.6048C126.894 70.3576 122.859 75.4066 118.272 79.5923C113.534 83.9092 108.298 87.2221 102.716 89.4463L102.556 89.512C102.406 89.5777 102.247 89.634 102.097 89.6903L101.083 90.0751L100.061 89.6809Z" fill="url(#paint105_linear_854_3922)"/>
<path d="M137.139 13.7675C132.767 15.1377 128.245 15.8321 123.629 15.8321C115.973 15.8321 108.439 13.8707 101.656 10.1449C101.459 10.0417 101.262 9.93848 101.074 9.82587C94.1406 13.7581 86.391 15.8321 78.5193 15.8321C73.9033 15.8321 69.3811 15.1377 65.009 13.7675C64.5306 17.3525 64.2866 20.975 64.2866 24.5881C64.2866 53.2962 79.3544 78.7383 101.074 87.025C101.271 86.95 101.459 86.8749 101.656 86.7904C123.066 78.2784 137.861 53.0334 137.861 24.5881C137.871 20.975 137.627 17.3525 137.139 13.7675Z" fill="url(#paint106_linear_854_3922)"/>
<path d="M80.9585 47.9562L95.2382 63.4786C95.8292 64.1262 96.8613 64.0886 97.4148 63.4129L122.437 32.5558C122.953 31.9176 122.831 30.9791 122.174 30.4911L116.029 25.9395C115.4 25.4703 114.509 25.5923 114.031 26.2117L97.5931 47.4494C97.0583 48.1345 96.0544 48.2002 95.4352 47.5902L88.3517 40.5047C87.7887 39.9416 86.8693 39.9416 86.3064 40.5141L80.9773 45.9573C80.4519 46.5203 80.4331 47.3931 80.9585 47.9562Z" fill="white"/>
<defs>
<linearGradient id="paint0_linear_854_3922" x1="206.956" y1="82.2539" x2="116.25" y2="82.2539" gradientUnits="userSpaceOnUse">
<stop stop-color="#00BEFF"/>
<stop offset="1" stop-color="#007DFF"/>
</linearGradient>
<linearGradient id="paint1_linear_854_3922" x1="206.956" y1="82.2539" x2="116.25" y2="82.2539" gradientUnits="userSpaceOnUse">
<stop stop-color="#00BEFF"/>
<stop offset="1" stop-color="#007DFF"/>
</linearGradient>
<linearGradient id="paint2_linear_854_3922" x1="206.957" y1="78.2964" x2="116.25" y2="78.2964" gradientUnits="userSpaceOnUse">
<stop stop-color="#00BEFF"/>
<stop offset="1" stop-color="#007DFF"/>
</linearGradient>
<linearGradient id="paint3_linear_854_3922" x1="206.956" y1="78.2964" x2="116.25" y2="78.2964" gradientUnits="userSpaceOnUse">
<stop stop-color="#00BEFF"/>
<stop offset="1" stop-color="#007DFF"/>
</linearGradient>
<linearGradient id="paint4_linear_854_3922" x1="206.956" y1="48.0789" x2="116.25" y2="48.0789" gradientUnits="userSpaceOnUse">
<stop stop-color="#00BEFF"/>
<stop offset="1" stop-color="#007DFF"/>
</linearGradient>
<linearGradient id="paint5_linear_854_3922" x1="206.956" y1="48.0789" x2="116.25" y2="48.0789" gradientUnits="userSpaceOnUse">
<stop stop-color="#00BEFF"/>
<stop offset="1" stop-color="#007DFF"/>
</linearGradient>
<linearGradient id="paint6_linear_854_3922" x1="206.957" y1="51.6285" x2="116.25" y2="51.6285" gradientUnits="userSpaceOnUse">
<stop stop-color="#00BEFF"/>
<stop offset="1" stop-color="#007DFF"/>
</linearGradient>
<linearGradient id="paint7_linear_854_3922" x1="206.957" y1="51.6285" x2="116.251" y2="51.6285" gradientUnits="userSpaceOnUse">
<stop stop-color="#00BEFF"/>
<stop offset="1" stop-color="#007DFF"/>
</linearGradient>
<linearGradient id="paint8_linear_854_3922" x1="206.956" y1="74.3389" x2="116.25" y2="74.3389" gradientUnits="userSpaceOnUse">
<stop stop-color="#00BEFF"/>
<stop offset="1" stop-color="#007DFF"/>
</linearGradient>
<linearGradient id="paint9_linear_854_3922" x1="206.957" y1="74.3389" x2="116.25" y2="74.3389" gradientUnits="userSpaceOnUse">
<stop stop-color="#00BEFF"/>
<stop offset="1" stop-color="#007DFF"/>
</linearGradient>
<linearGradient id="paint10_linear_854_3922" x1="206.956" y1="70.3813" x2="116.25" y2="70.3813" gradientUnits="userSpaceOnUse">
<stop stop-color="#00BEFF"/>
<stop offset="1" stop-color="#007DFF"/>
</linearGradient>
<linearGradient id="paint11_linear_854_3922" x1="206.956" y1="70.3813" x2="116.25" y2="70.3813" gradientUnits="userSpaceOnUse">
<stop stop-color="#00BEFF"/>
<stop offset="1" stop-color="#007DFF"/>
</linearGradient>
<linearGradient id="paint12_linear_854_3922" x1="206.957" y1="59.5718" x2="116.25" y2="59.5718" gradientUnits="userSpaceOnUse">
<stop stop-color="#00BEFF"/>
<stop offset="1" stop-color="#007DFF"/>
</linearGradient>
<linearGradient id="paint13_linear_854_3922" x1="206.957" y1="64.9991" x2="116.25" y2="64.9991" gradientUnits="userSpaceOnUse">
<stop stop-color="#00BEFF"/>
<stop offset="1" stop-color="#007DFF"/>
</linearGradient>
<linearGradient id="paint14_linear_854_3922" x1="206.956" y1="55.2062" x2="116.25" y2="55.2062" gradientUnits="userSpaceOnUse">
<stop stop-color="#00BEFF"/>
<stop offset="1" stop-color="#007DFF"/>
</linearGradient>
<linearGradient id="paint15_linear_854_3922" x1="206.957" y1="77.7785" x2="116.25" y2="77.7785" gradientUnits="userSpaceOnUse">
<stop stop-color="#00BEFF"/>
<stop offset="1" stop-color="#007DFF"/>
</linearGradient>
<linearGradient id="paint16_linear_854_3922" x1="206.957" y1="77.7785" x2="116.25" y2="77.7785" gradientUnits="userSpaceOnUse">
<stop stop-color="#00BEFF"/>
<stop offset="1" stop-color="#007DFF"/>
</linearGradient>
<linearGradient id="paint17_linear_854_3922" x1="206.957" y1="72.2457" x2="116.251" y2="72.2457" gradientUnits="userSpaceOnUse">
<stop stop-color="#00BEFF"/>
<stop offset="1" stop-color="#007DFF"/>
</linearGradient>
<linearGradient id="paint18_linear_854_3922" x1="206.957" y1="66.7128" x2="116.25" y2="66.7128" gradientUnits="userSpaceOnUse">
<stop stop-color="#00BEFF"/>
<stop offset="1" stop-color="#007DFF"/>
</linearGradient>
<linearGradient id="paint19_linear_854_3922" x1="206.957" y1="73.7879" x2="116.25" y2="73.7879" gradientUnits="userSpaceOnUse">
<stop stop-color="#00BEFF"/>
<stop offset="1" stop-color="#007DFF"/>
</linearGradient>
<linearGradient id="paint20_linear_854_3922" x1="206.957" y1="73.7879" x2="116.25" y2="73.7879" gradientUnits="userSpaceOnUse">
<stop stop-color="#00BEFF"/>
<stop offset="1" stop-color="#007DFF"/>
</linearGradient>
<linearGradient id="paint21_linear_854_3922" x1="206.957" y1="68.2551" x2="116.25" y2="68.2551" gradientUnits="userSpaceOnUse">
<stop stop-color="#00BEFF"/>
<stop offset="1" stop-color="#007DFF"/>
</linearGradient>
<linearGradient id="paint22_linear_854_3922" x1="206.957" y1="62.7222" x2="116.251" y2="62.7222" gradientUnits="userSpaceOnUse">
<stop stop-color="#00BEFF"/>
<stop offset="1" stop-color="#007DFF"/>
</linearGradient>
<linearGradient id="paint23_linear_854_3922" x1="206.956" y1="69.815" x2="116.25" y2="69.815" gradientUnits="userSpaceOnUse">
<stop stop-color="#00BEFF"/>
<stop offset="1" stop-color="#007DFF"/>
</linearGradient>
<linearGradient id="paint24_linear_854_3922" x1="206.957" y1="69.815" x2="116.25" y2="69.815" gradientUnits="userSpaceOnUse">
<stop stop-color="#00BEFF"/>
<stop offset="1" stop-color="#007DFF"/>
</linearGradient>
<linearGradient id="paint25_linear_854_3922" x1="206.956" y1="64.2822" x2="116.25" y2="64.2822" gradientUnits="userSpaceOnUse">
<stop stop-color="#00BEFF"/>
<stop offset="1" stop-color="#007DFF"/>
</linearGradient>
<linearGradient id="paint26_linear_854_3922" x1="206.956" y1="58.7493" x2="116.25" y2="58.7493" gradientUnits="userSpaceOnUse">
<stop stop-color="#00BEFF"/>
<stop offset="1" stop-color="#007DFF"/>
</linearGradient>
<linearGradient id="paint27_linear_854_3922" x1="206.956" y1="13.9038" x2="116.25" y2="13.9038" gradientUnits="userSpaceOnUse">
<stop stop-color="#00BEFF"/>
<stop offset="1" stop-color="#007DFF"/>
</linearGradient>
<linearGradient id="paint28_linear_854_3922" x1="206.956" y1="13.9039" x2="116.25" y2="13.9039" gradientUnits="userSpaceOnUse">
<stop stop-color="#00BEFF"/>
<stop offset="1" stop-color="#007DFF"/>
</linearGradient>
<linearGradient id="paint29_linear_854_3922" x1="206.956" y1="17.8614" x2="116.25" y2="17.8614" gradientUnits="userSpaceOnUse">
<stop stop-color="#00BEFF"/>
<stop offset="1" stop-color="#007DFF"/>
</linearGradient>
<linearGradient id="paint30_linear_854_3922" x1="206.956" y1="17.8614" x2="116.25" y2="17.8614" gradientUnits="userSpaceOnUse">
<stop stop-color="#00BEFF"/>
<stop offset="1" stop-color="#007DFF"/>
</linearGradient>
<linearGradient id="paint31_linear_854_3922" x1="206.957" y1="44.5293" x2="116.25" y2="44.5293" gradientUnits="userSpaceOnUse">
<stop stop-color="#00BEFF"/>
<stop offset="1" stop-color="#007DFF"/>
</linearGradient>
<linearGradient id="paint32_linear_854_3922" x1="206.957" y1="44.5293" x2="116.251" y2="44.5293" gradientUnits="userSpaceOnUse">
<stop stop-color="#00BEFF"/>
<stop offset="1" stop-color="#007DFF"/>
</linearGradient>
<linearGradient id="paint33_linear_854_3922" x1="206.956" y1="21.8189" x2="116.25" y2="21.8189" gradientUnits="userSpaceOnUse">
<stop stop-color="#00BEFF"/>
<stop offset="1" stop-color="#007DFF"/>
</linearGradient>
<linearGradient id="paint34_linear_854_3922" x1="206.957" y1="21.8189" x2="116.25" y2="21.8189" gradientUnits="userSpaceOnUse">
<stop stop-color="#00BEFF"/>
<stop offset="1" stop-color="#007DFF"/>
</linearGradient>
<linearGradient id="paint35_linear_854_3922" x1="206.956" y1="25.7765" x2="116.25" y2="25.7765" gradientUnits="userSpaceOnUse">
<stop stop-color="#00BEFF"/>
<stop offset="1" stop-color="#007DFF"/>
</linearGradient>
<linearGradient id="paint36_linear_854_3922" x1="206.957" y1="25.7765" x2="116.25" y2="25.7765" gradientUnits="userSpaceOnUse">
<stop stop-color="#00BEFF"/>
<stop offset="1" stop-color="#007DFF"/>
</linearGradient>
<linearGradient id="paint37_linear_854_3922" x1="206.957" y1="36.586" x2="116.25" y2="36.586" gradientUnits="userSpaceOnUse">
<stop stop-color="#00BEFF"/>
<stop offset="1" stop-color="#007DFF"/>
</linearGradient>
<linearGradient id="paint38_linear_854_3922" x1="206.957" y1="31.1587" x2="116.25" y2="31.1587" gradientUnits="userSpaceOnUse">
<stop stop-color="#00BEFF"/>
<stop offset="1" stop-color="#007DFF"/>
</linearGradient>
<linearGradient id="paint39_linear_854_3922" x1="206.956" y1="40.9516" x2="116.25" y2="40.9516" gradientUnits="userSpaceOnUse">
<stop stop-color="#00BEFF"/>
<stop offset="1" stop-color="#007DFF"/>
</linearGradient>
<linearGradient id="paint40_linear_854_3922" x1="206.957" y1="18.3794" x2="116.25" y2="18.3794" gradientUnits="userSpaceOnUse">
<stop stop-color="#00BEFF"/>
<stop offset="1" stop-color="#007DFF"/>
</linearGradient>
<linearGradient id="paint41_linear_854_3922" x1="206.956" y1="18.3794" x2="116.25" y2="18.3794" gradientUnits="userSpaceOnUse">
<stop stop-color="#00BEFF"/>
<stop offset="1" stop-color="#007DFF"/>
</linearGradient>
<linearGradient id="paint42_linear_854_3922" x1="206.957" y1="23.9122" x2="116.251" y2="23.9122" gradientUnits="userSpaceOnUse">
<stop stop-color="#00BEFF"/>
<stop offset="1" stop-color="#007DFF"/>
</linearGradient>
<linearGradient id="paint43_linear_854_3922" x1="206.957" y1="29.445" x2="116.25" y2="29.445" gradientUnits="userSpaceOnUse">
<stop stop-color="#00BEFF"/>
<stop offset="1" stop-color="#007DFF"/>
</linearGradient>
<linearGradient id="paint44_linear_854_3922" x1="206.957" y1="22.3699" x2="116.25" y2="22.3699" gradientUnits="userSpaceOnUse">
<stop stop-color="#00BEFF"/>
<stop offset="1" stop-color="#007DFF"/>
</linearGradient>
<linearGradient id="paint45_linear_854_3922" x1="206.957" y1="22.3699" x2="116.25" y2="22.3699" gradientUnits="userSpaceOnUse">
<stop stop-color="#00BEFF"/>
<stop offset="1" stop-color="#007DFF"/>
</linearGradient>
<linearGradient id="paint46_linear_854_3922" x1="206.957" y1="27.9028" x2="116.25" y2="27.9028" gradientUnits="userSpaceOnUse">
<stop stop-color="#00BEFF"/>
<stop offset="1" stop-color="#007DFF"/>
</linearGradient>
<linearGradient id="paint47_linear_854_3922" x1="206.957" y1="33.4356" x2="116.251" y2="33.4356" gradientUnits="userSpaceOnUse">
<stop stop-color="#00BEFF"/>
<stop offset="1" stop-color="#007DFF"/>
</linearGradient>
<linearGradient id="paint48_linear_854_3922" x1="206.956" y1="26.3428" x2="116.25" y2="26.3428" gradientUnits="userSpaceOnUse">
<stop stop-color="#00BEFF"/>
<stop offset="1" stop-color="#007DFF"/>
</linearGradient>
<linearGradient id="paint49_linear_854_3922" x1="206.956" y1="26.3428" x2="116.25" y2="26.3428" gradientUnits="userSpaceOnUse">
<stop stop-color="#00BEFF"/>
<stop offset="1" stop-color="#007DFF"/>
</linearGradient>
<linearGradient id="paint50_linear_854_3922" x1="206.956" y1="31.8757" x2="116.25" y2="31.8757" gradientUnits="userSpaceOnUse">
<stop stop-color="#00BEFF"/>
<stop offset="1" stop-color="#007DFF"/>
</linearGradient>
<linearGradient id="paint51_linear_854_3922" x1="206.956" y1="37.4085" x2="116.25" y2="37.4085" gradientUnits="userSpaceOnUse">
<stop stop-color="#00BEFF"/>
<stop offset="1" stop-color="#007DFF"/>
</linearGradient>
<linearGradient id="paint52_linear_854_3922" x1="-2.19462" y1="13.9038" x2="86.1248" y2="13.9038" gradientUnits="userSpaceOnUse">
<stop stop-color="#00BEFF"/>
<stop offset="1" stop-color="#007DFF"/>
</linearGradient>
<linearGradient id="paint53_linear_854_3922" x1="-2.19458" y1="13.9039" x2="86.1245" y2="13.9039" gradientUnits="userSpaceOnUse">
<stop stop-color="#00BEFF"/>
<stop offset="1" stop-color="#007DFF"/>
</linearGradient>
<linearGradient id="paint54_linear_854_3922" x1="-2.19474" y1="17.8614" x2="86.1246" y2="17.8614" gradientUnits="userSpaceOnUse">
<stop stop-color="#00BEFF"/>
<stop offset="1" stop-color="#007DFF"/>
</linearGradient>
<linearGradient id="paint55_linear_854_3922" x1="-2.19459" y1="17.8614" x2="86.1242" y2="17.8614" gradientUnits="userSpaceOnUse">
<stop stop-color="#00BEFF"/>
<stop offset="1" stop-color="#007DFF"/>
</linearGradient>
<linearGradient id="paint56_linear_854_3922" x1="-2.19478" y1="48.0789" x2="86.1246" y2="48.0789" gradientUnits="userSpaceOnUse">
<stop stop-color="#00BEFF"/>
<stop offset="1" stop-color="#007DFF"/>
</linearGradient>
<linearGradient id="paint57_linear_854_3922" x1="-2.19479" y1="48.0789" x2="86.1249" y2="48.0789" gradientUnits="userSpaceOnUse">
<stop stop-color="#00BEFF"/>
<stop offset="1" stop-color="#007DFF"/>
</linearGradient>
<linearGradient id="paint58_linear_854_3922" x1="-2.19469" y1="44.5293" x2="86.125" y2="44.5293" gradientUnits="userSpaceOnUse">
<stop stop-color="#00BEFF"/>
<stop offset="1" stop-color="#007DFF"/>
</linearGradient>
<linearGradient id="paint59_linear_854_3922" x1="-2.19469" y1="44.5293" x2="86.1244" y2="44.5293" gradientUnits="userSpaceOnUse">
<stop stop-color="#00BEFF"/>
<stop offset="1" stop-color="#007DFF"/>
</linearGradient>
<linearGradient id="paint60_linear_854_3922" x1="-2.19484" y1="21.8189" x2="86.1246" y2="21.8189" gradientUnits="userSpaceOnUse">
<stop stop-color="#00BEFF"/>
<stop offset="1" stop-color="#007DFF"/>
</linearGradient>
<linearGradient id="paint61_linear_854_3922" x1="-2.19475" y1="21.8189" x2="86.1246" y2="21.8189" gradientUnits="userSpaceOnUse">
<stop stop-color="#00BEFF"/>
<stop offset="1" stop-color="#007DFF"/>
</linearGradient>
<linearGradient id="paint62_linear_854_3922" x1="-2.19481" y1="25.7765" x2="86.1247" y2="25.7765" gradientUnits="userSpaceOnUse">
<stop stop-color="#00BEFF"/>
<stop offset="1" stop-color="#007DFF"/>
</linearGradient>
<linearGradient id="paint63_linear_854_3922" x1="-2.19458" y1="25.7765" x2="86.1245" y2="25.7765" gradientUnits="userSpaceOnUse">
<stop stop-color="#00BEFF"/>
<stop offset="1" stop-color="#007DFF"/>
</linearGradient>
<linearGradient id="paint64_linear_854_3922" x1="-2.19495" y1="36.586" x2="86.1246" y2="36.586" gradientUnits="userSpaceOnUse">
<stop stop-color="#00BEFF"/>
<stop offset="1" stop-color="#007DFF"/>
</linearGradient>
<linearGradient id="paint65_linear_854_3922" x1="-2.19494" y1="31.1587" x2="86.1247" y2="31.1587" gradientUnits="userSpaceOnUse">
<stop stop-color="#00BEFF"/>
<stop offset="1" stop-color="#007DFF"/>
</linearGradient>
<linearGradient id="paint66_linear_854_3922" x1="-2.19477" y1="40.9516" x2="86.1246" y2="40.9516" gradientUnits="userSpaceOnUse">
<stop stop-color="#00BEFF"/>
<stop offset="1" stop-color="#007DFF"/>
</linearGradient>
<linearGradient id="paint67_linear_854_3922" x1="-2.19487" y1="18.3794" x2="86.1246" y2="18.3794" gradientUnits="userSpaceOnUse">
<stop stop-color="#00BEFF"/>
<stop offset="1" stop-color="#007DFF"/>
</linearGradient>
<linearGradient id="paint68_linear_854_3922" x1="-2.19483" y1="18.3794" x2="86.1245" y2="18.3794" gradientUnits="userSpaceOnUse">
<stop stop-color="#00BEFF"/>
<stop offset="1" stop-color="#007DFF"/>
</linearGradient>
<linearGradient id="paint69_linear_854_3922" x1="-2.19483" y1="23.9122" x2="86.1246" y2="23.9122" gradientUnits="userSpaceOnUse">
<stop stop-color="#00BEFF"/>
<stop offset="1" stop-color="#007DFF"/>
</linearGradient>
<linearGradient id="paint70_linear_854_3922" x1="-2.19497" y1="29.445" x2="86.1245" y2="29.445" gradientUnits="userSpaceOnUse">
<stop stop-color="#00BEFF"/>
<stop offset="1" stop-color="#007DFF"/>
</linearGradient>
<linearGradient id="paint71_linear_854_3922" x1="-2.19465" y1="22.3699" x2="86.1248" y2="22.3699" gradientUnits="userSpaceOnUse">
<stop stop-color="#00BEFF"/>
<stop offset="1" stop-color="#007DFF"/>
</linearGradient>
<linearGradient id="paint72_linear_854_3922" x1="-2.19474" y1="22.37" x2="86.1249" y2="22.37" gradientUnits="userSpaceOnUse">
<stop stop-color="#00BEFF"/>
<stop offset="1" stop-color="#007DFF"/>
</linearGradient>
<linearGradient id="paint73_linear_854_3922" x1="-2.19464" y1="27.9028" x2="86.1247" y2="27.9028" gradientUnits="userSpaceOnUse">
<stop stop-color="#00BEFF"/>
<stop offset="1" stop-color="#007DFF"/>
</linearGradient>
<linearGradient id="paint74_linear_854_3922" x1="-2.19449" y1="33.4356" x2="86.125" y2="33.4356" gradientUnits="userSpaceOnUse">
<stop stop-color="#00BEFF"/>
<stop offset="1" stop-color="#007DFF"/>
</linearGradient>
<linearGradient id="paint75_linear_854_3922" x1="-2.1948" y1="26.3428" x2="86.1247" y2="26.3428" gradientUnits="userSpaceOnUse">
<stop stop-color="#00BEFF"/>
<stop offset="1" stop-color="#007DFF"/>
</linearGradient>
<linearGradient id="paint76_linear_854_3922" x1="-2.19488" y1="26.3428" x2="86.1248" y2="26.3428" gradientUnits="userSpaceOnUse">
<stop stop-color="#00BEFF"/>
<stop offset="1" stop-color="#007DFF"/>
</linearGradient>
<linearGradient id="paint77_linear_854_3922" x1="-2.19483" y1="31.8757" x2="86.1248" y2="31.8757" gradientUnits="userSpaceOnUse">
<stop stop-color="#00BEFF"/>
<stop offset="1" stop-color="#007DFF"/>
</linearGradient>
<linearGradient id="paint78_linear_854_3922" x1="-2.19503" y1="37.4085" x2="86.1245" y2="37.4085" gradientUnits="userSpaceOnUse">
<stop stop-color="#00BEFF"/>
<stop offset="1" stop-color="#007DFF"/>
</linearGradient>
<linearGradient id="paint79_linear_854_3922" x1="-2.19487" y1="82.2539" x2="86.1246" y2="82.2539" gradientUnits="userSpaceOnUse">
<stop stop-color="#00BEFF"/>
<stop offset="1" stop-color="#007DFF"/>
</linearGradient>
<linearGradient id="paint80_linear_854_3922" x1="-2.19472" y1="82.2539" x2="86.1243" y2="82.2539" gradientUnits="userSpaceOnUse">
<stop stop-color="#00BEFF"/>
<stop offset="1" stop-color="#007DFF"/>
</linearGradient>
<linearGradient id="paint81_linear_854_3922" x1="-2.19477" y1="78.2964" x2="86.1248" y2="78.2964" gradientUnits="userSpaceOnUse">
<stop stop-color="#00BEFF"/>
<stop offset="1" stop-color="#007DFF"/>
</linearGradient>
<linearGradient id="paint82_linear_854_3922" x1="-2.19459" y1="78.2964" x2="86.1242" y2="78.2964" gradientUnits="userSpaceOnUse">
<stop stop-color="#00BEFF"/>
<stop offset="1" stop-color="#007DFF"/>
</linearGradient>
<linearGradient id="paint83_linear_854_3922" x1="-2.19493" y1="51.6285" x2="86.1248" y2="51.6285" gradientUnits="userSpaceOnUse">
<stop stop-color="#00BEFF"/>
<stop offset="1" stop-color="#007DFF"/>
</linearGradient>
<linearGradient id="paint84_linear_854_3922" x1="-2.19483" y1="51.6285" x2="86.1243" y2="51.6285" gradientUnits="userSpaceOnUse">
<stop stop-color="#00BEFF"/>
<stop offset="1" stop-color="#007DFF"/>
</linearGradient>
<linearGradient id="paint85_linear_854_3922" x1="-2.19508" y1="74.3389" x2="86.1244" y2="74.3389" gradientUnits="userSpaceOnUse">
<stop stop-color="#00BEFF"/>
<stop offset="1" stop-color="#007DFF"/>
</linearGradient>
<linearGradient id="paint86_linear_854_3922" x1="-2.19494" y1="74.3389" x2="86.1245" y2="74.3389" gradientUnits="userSpaceOnUse">
<stop stop-color="#00BEFF"/>
<stop offset="1" stop-color="#007DFF"/>
</linearGradient>
<linearGradient id="paint87_linear_854_3922" x1="-2.19481" y1="70.3814" x2="86.1247" y2="70.3814" gradientUnits="userSpaceOnUse">
<stop stop-color="#00BEFF"/>
<stop offset="1" stop-color="#007DFF"/>
</linearGradient>
<linearGradient id="paint88_linear_854_3922" x1="-2.19447" y1="70.3814" x2="86.1246" y2="70.3814" gradientUnits="userSpaceOnUse">
<stop stop-color="#00BEFF"/>
<stop offset="1" stop-color="#007DFF"/>
</linearGradient>
<linearGradient id="paint89_linear_854_3922" x1="-2.19471" y1="59.5718" x2="86.1248" y2="59.5718" gradientUnits="userSpaceOnUse">
<stop stop-color="#00BEFF"/>
<stop offset="1" stop-color="#007DFF"/>
</linearGradient>
<linearGradient id="paint90_linear_854_3922" x1="-2.19483" y1="64.9991" x2="86.1248" y2="64.9991" gradientUnits="userSpaceOnUse">
<stop stop-color="#00BEFF"/>
<stop offset="1" stop-color="#007DFF"/>
</linearGradient>
<linearGradient id="paint91_linear_854_3922" x1="-2.19452" y1="55.2062" x2="86.1248" y2="55.2062" gradientUnits="userSpaceOnUse">
<stop stop-color="#00BEFF"/>
<stop offset="1" stop-color="#007DFF"/>
</linearGradient>
<linearGradient id="paint92_linear_854_3922" x1="-2.19487" y1="77.7785" x2="86.1246" y2="77.7785" gradientUnits="userSpaceOnUse">
<stop stop-color="#00BEFF"/>
<stop offset="1" stop-color="#007DFF"/>
</linearGradient>
<linearGradient id="paint93_linear_854_3922" x1="-2.19475" y1="77.7785" x2="86.1247" y2="77.7785" gradientUnits="userSpaceOnUse">
<stop stop-color="#00BEFF"/>
<stop offset="1" stop-color="#007DFF"/>
</linearGradient>
<linearGradient id="paint94_linear_854_3922" x1="-2.19459" y1="72.2456" x2="86.1249" y2="72.2456" gradientUnits="userSpaceOnUse">
<stop stop-color="#00BEFF"/>
<stop offset="1" stop-color="#007DFF"/>
</linearGradient>
<linearGradient id="paint95_linear_854_3922" x1="-2.19473" y1="66.7128" x2="86.1248" y2="66.7128" gradientUnits="userSpaceOnUse">
<stop stop-color="#00BEFF"/>
<stop offset="1" stop-color="#007DFF"/>
</linearGradient>
<linearGradient id="paint96_linear_854_3922" x1="-2.19489" y1="73.7879" x2="86.1245" y2="73.7879" gradientUnits="userSpaceOnUse">
<stop stop-color="#00BEFF"/>
<stop offset="1" stop-color="#007DFF"/>
</linearGradient>
<linearGradient id="paint97_linear_854_3922" x1="-2.19487" y1="73.7879" x2="86.1248" y2="73.7879" gradientUnits="userSpaceOnUse">
<stop stop-color="#00BEFF"/>
<stop offset="1" stop-color="#007DFF"/>
</linearGradient>
<linearGradient id="paint98_linear_854_3922" x1="-2.19464" y1="68.2551" x2="86.1247" y2="68.2551" gradientUnits="userSpaceOnUse">
<stop stop-color="#00BEFF"/>
<stop offset="1" stop-color="#007DFF"/>
</linearGradient>
<linearGradient id="paint99_linear_854_3922" x1="-2.19473" y1="62.7222" x2="86.1248" y2="62.7222" gradientUnits="userSpaceOnUse">
<stop stop-color="#00BEFF"/>
<stop offset="1" stop-color="#007DFF"/>
</linearGradient>
<linearGradient id="paint100_linear_854_3922" x1="-2.1948" y1="69.815" x2="86.1247" y2="69.815" gradientUnits="userSpaceOnUse">
<stop stop-color="#00BEFF"/>
<stop offset="1" stop-color="#007DFF"/>
</linearGradient>
<linearGradient id="paint101_linear_854_3922" x1="-2.19479" y1="69.815" x2="86.1249" y2="69.815" gradientUnits="userSpaceOnUse">
<stop stop-color="#00BEFF"/>
<stop offset="1" stop-color="#007DFF"/>
</linearGradient>
<linearGradient id="paint102_linear_854_3922" x1="-2.19458" y1="64.2822" x2="86.125" y2="64.2822" gradientUnits="userSpaceOnUse">
<stop stop-color="#00BEFF"/>
<stop offset="1" stop-color="#007DFF"/>
</linearGradient>
<linearGradient id="paint103_linear_854_3922" x1="-2.19479" y1="58.7493" x2="86.1248" y2="58.7493" gradientUnits="userSpaceOnUse">
<stop stop-color="#00BEFF"/>
<stop offset="1" stop-color="#007DFF"/>
</linearGradient>
<linearGradient id="paint104_linear_854_3922" x1="101.077" y1="96.1579" x2="101.077" y2="0" gradientUnits="userSpaceOnUse">
<stop stop-color="#AAB1B9"/>
<stop offset="0.2097" stop-color="#C3C8CD"/>
<stop offset="0.5397" stop-color="#E4E6E8"/>
<stop offset="0.8149" stop-color="#F8F8F9"/>
<stop offset="1" stop-color="white"/>
</linearGradient>
<linearGradient id="paint105_linear_854_3922" x1="101.077" y1="6.54543" x2="101.077" y2="90.0662" gradientUnits="userSpaceOnUse">
<stop stop-color="#AAB1B9"/>
<stop offset="0.2097" stop-color="#C3C8CD"/>
<stop offset="0.5397" stop-color="#E4E6E8"/>
<stop offset="0.8149" stop-color="#F8F8F9"/>
<stop offset="1" stop-color="white"/>
</linearGradient>
<linearGradient id="paint106_linear_854_3922" x1="101.077" y1="9.81822" x2="101.077" y2="87.0205" gradientUnits="userSpaceOnUse">
<stop stop-color="#2B4EFF"/>
<stop offset="1" stop-color="#2DB3FF"/>
</linearGradient>
</defs>
</svg>
